<svg width="100" height="100" viewBox="0 0 100 100" fill="none" xmlns="http://www.w3.org/2000/svg">
<rect width="100" height="100" fill="#5BB5A2"/>
<path d="M45.6978 72.768C43.2231 72.768 41.0258 72.2773 39.1058 71.296C37.2284 70.3147 35.7351 68.928 34.6257 67.136L33.9217 72H27.8417V25.92H34.6257V45.184C35.6497 43.6907 37.0577 42.368 38.8497 41.216C40.6418 40.064 42.9457 39.488 45.7617 39.488C48.8338 39.488 51.5431 40.2133 53.8898 41.664C56.2364 43.1147 58.0711 45.0987 59.3937 47.616C60.7591 50.1333 61.4417 52.992 61.4417 56.192C61.4417 59.392 60.7591 62.2507 59.3937 64.768C58.0711 67.2427 56.2364 69.2053 53.8898 70.656C51.5431 72.064 48.8124 72.768 45.6978 72.768ZM44.5457 66.88C47.4471 66.88 49.8364 65.8987 51.7138 63.936C53.5911 61.9307 54.5298 59.328 54.5298 56.128C54.5298 54.0373 54.1031 52.1813 53.2498 50.56C52.3964 48.9387 51.2231 47.68 49.7297 46.784C48.2364 45.8453 46.5084 45.376 44.5457 45.376C41.6444 45.376 39.2551 46.3787 37.3777 48.384C35.5431 50.3893 34.6257 52.9707 34.6257 56.128C34.6257 59.328 35.5431 61.9307 37.3777 63.936C39.2551 65.8987 41.6444 66.88 44.5457 66.88ZM69.5473 72.384C68.2673 72.384 67.2006 71.9787 66.3473 71.168C65.5366 70.3147 65.1313 69.312 65.1313 68.16C65.1313 66.9653 65.5366 65.9627 66.3473 65.152C67.2006 64.2987 68.2673 63.872 69.5473 63.872C70.8273 63.872 71.8726 64.2987 72.6833 65.152C73.4939 65.9627 73.8993 66.9653 73.8993 68.16C73.8993 69.312 73.4939 70.3147 72.6833 71.168C71.8726 71.9787 70.8273 72.384 69.5473 72.384Z" fill="white"/>
</svg>
